<svg width="1405" height="650" viewBox="0 0 1405 650" fill="none" xmlns="http://www.w3.org/2000/svg">
<path opacity="0.1" fill-rule="evenodd" clip-rule="evenodd" d="M807.154 486.279C807.195 489.202 807.579 492.15 808.347 495.118C811.04 505.535 823.055 512.223 835.843 513.795C848.625 515.368 861.919 511.79 867.042 502.728C869.972 497.548 870.377 493.082 869.179 489.318C867.987 485.573 865.157 482.469 861.318 480.05C850.611 473.312 831.861 471.936 823.307 474.753C819.351 476.059 815.486 477.631 811.722 479.43C813.874 467.652 821.893 456.495 832.594 446.441C855.851 424.589 891.941 408.003 911.595 401.906C912.651 401.578 913.237 400.459 912.909 399.406C912.58 398.353 911.459 397.763 910.403 398.091C890.359 404.309 853.567 421.248 829.85 443.533C817.598 455.043 808.867 468 807.377 481.622C779.679 496.383 756.932 523.164 737.485 545.701C736.763 546.533 736.859 547.798 737.697 548.518C738.536 549.234 739.799 549.143 740.522 548.307C759.176 526.692 780.826 500.979 807.154 486.279ZM811.181 484.137C811.03 487.423 811.353 490.759 812.227 494.126C814.556 503.141 825.263 508.473 836.333 509.834C843.118 510.666 850.096 509.98 855.568 507.541C859.008 506.009 861.843 503.787 863.551 500.763C865.794 496.797 866.279 493.405 865.36 490.527C864.44 487.629 862.156 485.301 859.18 483.432C849.424 477.288 832.351 475.983 824.565 478.548C819.973 480.06 815.516 481.945 811.181 484.137Z" fill="#FF772D" fill-opacity="0.25"/>
<g opacity="0.1" clip-path="url(#clip0_1351_12161)">
<path d="M29.9288 132.682C89.0944 162.974 130.149 213.462 167.98 268.57C204.318 321.503 239.696 376.53 292.172 413.769C400.172 490.354 542.767 483.809 665.829 453.469C803.328 419.705 937.591 356.775 1080.26 355.39C1150.37 354.657 1222.41 372.259 1275.04 421.749C1318.89 462.721 1336.78 519.065 1338.29 579.478C1339.15 613.724 1335.7 647.908 1331.95 682.043L1346.67 684.455C1347.66 674.643 1348.9 665.194 1349.89 655.383C1355.38 599.333 1357.63 540.5 1337.61 487.669C1314.83 427.306 1264.38 383.322 1207.04 360.729C1136.89 333.464 1059.41 335.884 986.15 348.326C915.692 360.585 846.996 382.784 778.754 404.093C648.086 445.091 504.104 484.549 371.1 436.361C339.949 425.14 310.52 409.055 284.769 387.459C259.268 366.225 238.191 340.569 218.873 313.593C180.477 261.932 147.466 203.753 98.7185 160.691C48.0749 116.031 -17.2144 89.2397 -83.5513 85.7646L-83.8515 85.7154L-86.4713 101.695C-46.1184 103.806 -6.50059 114.162 29.9288 132.682Z" fill="#FF772D" fill-opacity="0.25"/>
<path d="M267.51 505.974C412.948 562.808 573.295 509.149 682.221 454.219C738.205 425.961 792.669 392.305 845.61 359.919C913.765 318.008 984.659 274.509 1058.9 242.123C1131.31 210.69 1315.39 147.823 1457.48 245.933C1539.03 302.45 1595.92 406.593 1626.35 555.505C1629.09 569.475 1631.83 583.763 1634.26 598.051H1637.3C1634.87 583.763 1632.13 569.158 1629.39 554.87C1598.97 405.005 1541.77 300.227 1459.31 243.393C1316 144.33 1131.01 207.514 1057.99 239.265C983.442 271.651 912.853 315.15 844.393 357.061C791.756 389.447 737.293 423.104 681.308 451.362C572.99 505.974 413.556 559.315 269.031 503.116C217.306 482.795 170.145 449.774 124.81 417.706C105.946 404.37 86.7771 390.718 67 378.017V381.827C86.1686 394.21 104.729 407.228 122.984 420.246C168.624 452.632 215.785 485.653 267.51 505.974Z" fill="#FF772D" fill-opacity="0.25"/>
</g>
<path opacity="0.1" fill-rule="evenodd" clip-rule="evenodd" d="M1289.85 62.7211C1289.81 59.7981 1289.42 56.8499 1288.65 53.8816C1285.96 43.4647 1273.95 36.7771 1261.16 35.2047C1248.37 33.6324 1235.08 37.2105 1229.96 46.2717C1227.03 51.4525 1226.62 55.9176 1227.82 59.6822C1229.01 63.4267 1231.84 66.531 1235.68 68.95C1246.39 75.688 1265.14 77.0638 1273.69 74.2467C1277.65 72.9414 1281.51 71.3692 1285.28 69.57C1283.13 81.3476 1275.11 92.5053 1264.41 102.559C1241.15 124.411 1205.06 140.997 1185.4 147.094C1184.35 147.422 1183.76 148.541 1184.09 149.594C1184.42 150.647 1185.54 151.237 1186.6 150.909C1206.64 144.691 1243.43 127.752 1267.15 105.467C1279.4 93.9567 1288.13 80.9998 1289.62 67.3777C1317.32 52.6167 1340.07 25.8362 1359.51 3.29897C1360.24 2.46743 1360.14 1.20244 1359.3 0.481777C1358.46 -0.23385 1357.2 -0.143176 1356.48 0.693401C1337.82 22.3083 1316.17 48.0205 1289.85 62.7211ZM1285.82 64.863C1285.97 61.5771 1285.65 58.2409 1284.77 54.8744C1282.44 45.8585 1271.74 40.5266 1260.67 39.1659C1253.88 38.3344 1246.9 39.0198 1241.43 41.459C1237.99 42.991 1235.16 45.2135 1233.45 48.2373C1231.21 52.2034 1230.72 55.5951 1231.64 58.4728C1232.56 61.3705 1234.84 63.6988 1237.82 65.5685C1247.58 71.7118 1264.65 73.0171 1272.43 70.452C1277.03 68.9401 1281.48 67.0552 1285.82 64.863Z" fill="#FF772D" fill-opacity="0.65"/>
<path opacity="0.1" fill-rule="evenodd" clip-rule="evenodd" d="M92.8949 539.893C90.6311 538.044 88.5611 535.91 86.7143 533.462C80.2318 524.875 82.467 511.307 89.1886 500.315C95.9072 489.327 106.976 481.143 117.258 482.766C123.138 483.693 126.886 486.154 129.089 489.433C131.28 492.695 131.951 496.841 131.457 501.353C130.075 513.927 119.492 529.466 111.966 534.412C108.484 536.698 104.849 538.747 101.099 540.576C111.66 546.215 125.384 546.875 139.913 544.748C171.488 540.126 206.921 522.179 223.919 510.58C224.833 509.957 226.073 510.194 226.694 511.106C227.314 512.018 227.079 513.263 226.165 513.886C208.83 525.714 172.685 543.992 140.484 548.705C123.85 551.141 108.274 549.92 96.6796 542.615C67.8948 555.125 32.777 556.282 3.03397 557.495C1.93347 557.544 1.00255 556.682 0.959812 555.577C0.921024 554.475 1.77769 553.542 2.88214 553.497C31.4096 552.332 65.0089 551.369 92.8949 539.893ZM97.0764 538.072C94.409 536.147 91.9977 533.819 89.905 531.041C84.2934 523.61 86.7764 511.91 92.5955 502.395C96.1643 496.564 101.04 491.526 106.354 488.758C109.693 487.017 113.196 486.179 116.626 486.722C121.127 487.432 124.085 489.162 125.767 491.672C127.464 494.194 127.867 497.43 127.48 500.924C126.223 512.384 116.628 526.565 109.777 531.067C105.737 533.723 101.489 536.041 97.0764 538.072Z" fill="#FF772D" fill-opacity="0.65"/>
<defs>
<clipPath id="clip0_1351_12161">
<rect width="1283" height="484" fill="white" transform="translate(122 148)"/>
</clipPath>
</defs>
</svg>
