<svg width="144" height="62" viewBox="0 0 144 62" fill="none" xmlns="http://www.w3.org/2000/svg">
<path d="M1.2 2.32384C1.86274 2.32384 2.4 1.80363 2.4 1.16192C2.4 0.520213 1.86274 0 1.2 0C0.537259 0 0 0.520213 0 1.16192C0 1.80363 0.537259 2.32384 1.2 2.32384Z" fill="#FF772D" fill-opacity="0.45"/>
<path d="M18.8992 2.32384C19.562 2.32384 20.0992 1.80363 20.0992 1.16192C20.0992 0.520213 19.562 0 18.8992 0C18.2365 0 17.6992 0.520213 17.6992 1.16192C17.6992 1.80363 18.2365 2.32384 18.8992 2.32384Z" fill="#FF772D" fill-opacity="0.45"/>
<path d="M36.5008 2.32384C37.1635 2.32384 37.7008 1.80363 37.7008 1.16192C37.7008 0.520213 37.1635 0 36.5008 0C35.838 0 35.3008 0.520213 35.3008 1.16192C35.3008 1.80363 35.838 2.32384 36.5008 2.32384Z" fill="#FF772D" fill-opacity="0.45"/>
<path d="M55.4 1.16192C55.4 1.83971 54.9 2.32384 54.2 2.32384C53.5 2.32384 53 1.83971 53 1.16192C53 0.484137 53.5 0 54.2 0C54.9 0 55.4 0.580963 55.4 1.16192Z" fill="#FF772D" fill-opacity="0.45"/>
<path d="M71.8992 2.32384C72.562 2.32384 73.0992 1.80363 73.0992 1.16192C73.0992 0.520213 72.562 0 71.8992 0C71.2365 0 70.6992 0.520213 70.6992 1.16192C70.6992 1.80363 71.2365 2.32384 71.8992 2.32384Z" fill="#FF772D" fill-opacity="0.45"/>
<path d="M89.5008 2.32384C90.1635 2.32384 90.7008 1.80363 90.7008 1.16192C90.7008 0.520213 90.1635 0 89.5008 0C88.838 0 88.3008 0.520213 88.3008 1.16192C88.3008 1.80363 88.838 2.32384 89.5008 2.32384Z" fill="#FF772D" fill-opacity="0.45"/>
<path d="M107.2 2.32384C107.863 2.32384 108.4 1.80363 108.4 1.16192C108.4 0.520213 107.863 0 107.2 0C106.537 0 106 0.520213 106 1.16192C106 1.80363 106.537 2.32384 107.2 2.32384Z" fill="#FF772D" fill-opacity="0.45"/>
<path d="M124.8 2.32384C125.462 2.32384 126 1.80363 126 1.16192C126 0.520213 125.462 0 124.8 0C124.137 0 123.6 0.520213 123.6 1.16192C123.6 1.80363 124.137 2.32384 124.8 2.32384Z" fill="#FF772D" fill-opacity="0.45"/>
<path d="M142.501 2.32384C143.164 2.32384 143.701 1.80363 143.701 1.16192C143.701 0.520213 143.164 0 142.501 0C141.838 0 141.301 0.520213 141.301 1.16192C141.301 1.80363 141.838 2.32384 142.501 2.32384Z" fill="#FF772D" fill-opacity="0.45"/>
<path d="M1.2 13.8463C1.86274 13.8463 2.4 13.3261 2.4 12.6844C2.4 12.0427 1.86274 11.5225 1.2 11.5225C0.537259 11.5225 0 12.0427 0 12.6844C0 13.3261 0.537259 13.8463 1.2 13.8463Z" fill="#FF772D" fill-opacity="0.45"/>
<path d="M18.8992 13.8463C19.562 13.8463 20.0992 13.3261 20.0992 12.6844C20.0992 12.0427 19.562 11.5225 18.8992 11.5225C18.2365 11.5225 17.6992 12.0427 17.6992 12.6844C17.6992 13.3261 18.2365 13.8463 18.8992 13.8463Z" fill="#FF772D" fill-opacity="0.45"/>
<path d="M36.5008 13.8463C37.1635 13.8463 37.7008 13.3261 37.7008 12.6844C37.7008 12.0427 37.1635 11.5225 36.5008 11.5225C35.838 11.5225 35.3008 12.0427 35.3008 12.6844C35.3008 13.3261 35.838 13.8463 36.5008 13.8463Z" fill="#FF772D" fill-opacity="0.45"/>
<path d="M55.4 12.6844C55.4 13.3622 54.9 13.8463 54.2 13.8463C53.5 13.8463 53 13.3622 53 12.6844C53 12.0066 53.5 11.5225 54.2 11.5225C54.9 11.5225 55.4 12.0066 55.4 12.6844Z" fill="#FF772D" fill-opacity="0.45"/>
<path d="M71.8992 13.8463C72.562 13.8463 73.0992 13.3261 73.0992 12.6844C73.0992 12.0427 72.562 11.5225 71.8992 11.5225C71.2365 11.5225 70.6992 12.0427 70.6992 12.6844C70.6992 13.3261 71.2365 13.8463 71.8992 13.8463Z" fill="#FF772D" fill-opacity="0.45"/>
<path d="M89.5008 13.8463C90.1635 13.8463 90.7008 13.3261 90.7008 12.6844C90.7008 12.0427 90.1635 11.5225 89.5008 11.5225C88.838 11.5225 88.3008 12.0427 88.3008 12.6844C88.3008 13.3261 88.838 13.8463 89.5008 13.8463Z" fill="#FF772D" fill-opacity="0.45"/>
<path d="M107.2 13.8463C107.863 13.8463 108.4 13.3261 108.4 12.6844C108.4 12.0427 107.863 11.5225 107.2 11.5225C106.537 11.5225 106 12.0427 106 12.6844C106 13.3261 106.537 13.8463 107.2 13.8463Z" fill="#FF772D" fill-opacity="0.45"/>
<path d="M124.8 13.8463C125.462 13.8463 126 13.3261 126 12.6844C126 12.0427 125.462 11.5225 124.8 11.5225C124.137 11.5225 123.6 12.0427 123.6 12.6844C123.6 13.3261 124.137 13.8463 124.8 13.8463Z" fill="#FF772D" fill-opacity="0.45"/>
<path d="M142.501 13.8463C143.164 13.8463 143.701 13.3261 143.701 12.6844C143.701 12.0427 143.164 11.5225 142.501 11.5225C141.838 11.5225 141.301 12.0427 141.301 12.6844C141.301 13.3261 141.838 13.8463 142.501 13.8463Z" fill="#FF772D" fill-opacity="0.45"/>
<path d="M1.2 25.3687C1.86274 25.3687 2.4 24.8485 2.4 24.2068C2.4 23.5651 1.86274 23.0449 1.2 23.0449C0.537259 23.0449 0 23.5651 0 24.2068C0 24.8485 0.537259 25.3687 1.2 25.3687Z" fill="#FF772D" fill-opacity="0.45"/>
<path d="M18.8992 25.3687C19.562 25.3687 20.0992 24.8485 20.0992 24.2068C20.0992 23.5651 19.562 23.0449 18.8992 23.0449C18.2365 23.0449 17.6992 23.5651 17.6992 24.2068C17.6992 24.8485 18.2365 25.3687 18.8992 25.3687Z" fill="#FF772D" fill-opacity="0.45"/>
<path d="M36.5008 25.3687C37.1635 25.3687 37.7008 24.8485 37.7008 24.2068C37.7008 23.5651 37.1635 23.0449 36.5008 23.0449C35.838 23.0449 35.3008 23.5651 35.3008 24.2068C35.3008 24.8485 35.838 25.3687 36.5008 25.3687Z" fill="#FF772D" fill-opacity="0.45"/>
<path d="M55.4 24.2067C55.4 24.8844 54.9 25.3686 54.2 25.3686C53.5 25.3686 53 24.8844 53 24.2067C53 23.5289 53.5 23.0448 54.2 23.0448C54.9 22.948 55.4 23.5289 55.4 24.2067Z" fill="#FF772D" fill-opacity="0.45"/>
<path d="M71.8992 25.3687C72.562 25.3687 73.0992 24.8485 73.0992 24.2068C73.0992 23.5651 72.562 23.0449 71.8992 23.0449C71.2365 23.0449 70.6992 23.5651 70.6992 24.2068C70.6992 24.8485 71.2365 25.3687 71.8992 25.3687Z" fill="#FF772D" fill-opacity="0.45"/>
<path d="M89.5008 25.3687C90.1635 25.3687 90.7008 24.8485 90.7008 24.2068C90.7008 23.5651 90.1635 23.0449 89.5008 23.0449C88.838 23.0449 88.3008 23.5651 88.3008 24.2068C88.3008 24.8485 88.838 25.3687 89.5008 25.3687Z" fill="#FF772D" fill-opacity="0.45"/>
<path d="M107.2 25.3687C107.863 25.3687 108.4 24.8485 108.4 24.2068C108.4 23.5651 107.863 23.0449 107.2 23.0449C106.537 23.0449 106 23.5651 106 24.2068C106 24.8485 106.537 25.3687 107.2 25.3687Z" fill="#FF772D" fill-opacity="0.45"/>
<path d="M124.8 25.3687C125.462 25.3687 126 24.8485 126 24.2068C126 23.5651 125.462 23.0449 124.8 23.0449C124.137 23.0449 123.6 23.5651 123.6 24.2068C123.6 24.8485 124.137 25.3687 124.8 25.3687Z" fill="#FF772D" fill-opacity="0.45"/>
<path d="M142.501 25.3687C143.164 25.3687 143.701 24.8485 143.701 24.2068C143.701 23.5651 143.164 23.0449 142.501 23.0449C141.838 23.0449 141.301 23.5651 141.301 24.2068C141.301 24.8485 141.838 25.3687 142.501 25.3687Z" fill="#FF772D" fill-opacity="0.45"/>
<path d="M1.2 36.794C1.86274 36.794 2.4 36.2738 2.4 35.6321C2.4 34.9904 1.86274 34.4702 1.2 34.4702C0.537259 34.4702 0 34.9904 0 35.6321C0 36.2738 0.537259 36.794 1.2 36.794Z" fill="#FF772D" fill-opacity="0.45"/>
<path d="M18.8992 36.794C19.562 36.794 20.0992 36.2738 20.0992 35.6321C20.0992 34.9904 19.562 34.4702 18.8992 34.4702C18.2365 34.4702 17.6992 34.9904 17.6992 35.6321C17.6992 36.2738 18.2365 36.794 18.8992 36.794Z" fill="#FF772D" fill-opacity="0.45"/>
<path d="M36.5008 36.794C37.1635 36.794 37.7008 36.2738 37.7008 35.6321C37.7008 34.9904 37.1635 34.4702 36.5008 34.4702C35.838 34.4702 35.3008 34.9904 35.3008 35.6321C35.3008 36.2738 35.838 36.794 36.5008 36.794Z" fill="#FF772D" fill-opacity="0.45"/>
<path d="M55.4 35.6321C55.4 36.3099 54.9 36.794 54.2 36.794C53.5 36.794 53 36.3099 53 35.6321C53 34.9543 53.5 34.4702 54.2 34.4702C54.9 34.4702 55.4 35.0512 55.4 35.6321Z" fill="#FF772D" fill-opacity="0.45"/>
<path d="M71.8992 36.794C72.562 36.794 73.0992 36.2738 73.0992 35.6321C73.0992 34.9904 72.562 34.4702 71.8992 34.4702C71.2365 34.4702 70.6992 34.9904 70.6992 35.6321C70.6992 36.2738 71.2365 36.794 71.8992 36.794Z" fill="#FF772D" fill-opacity="0.45"/>
<path d="M89.5008 36.794C90.1635 36.794 90.7008 36.2738 90.7008 35.6321C90.7008 34.9904 90.1635 34.4702 89.5008 34.4702C88.838 34.4702 88.3008 34.9904 88.3008 35.6321C88.3008 36.2738 88.838 36.794 89.5008 36.794Z" fill="#FF772D" fill-opacity="0.45"/>
<path d="M107.2 36.794C107.863 36.794 108.4 36.2738 108.4 35.6321C108.4 34.9904 107.863 34.4702 107.2 34.4702C106.537 34.4702 106 34.9904 106 35.6321C106 36.2738 106.537 36.794 107.2 36.794Z" fill="#FF772D" fill-opacity="0.45"/>
<path d="M124.8 36.794C125.462 36.794 126 36.2738 126 35.6321C126 34.9904 125.462 34.4702 124.8 34.4702C124.137 34.4702 123.6 34.9904 123.6 35.6321C123.6 36.2738 124.137 36.794 124.8 36.794Z" fill="#FF772D" fill-opacity="0.45"/>
<path d="M142.501 36.794C143.164 36.794 143.701 36.2738 143.701 35.6321C143.701 34.9904 143.164 34.4702 142.501 34.4702C141.838 34.4702 141.301 34.9904 141.301 35.6321C141.301 36.2738 141.838 36.794 142.501 36.794Z" fill="#FF772D" fill-opacity="0.45"/>
<path d="M1.2 48.316C1.86274 48.316 2.4 47.7958 2.4 47.1541C2.4 46.5124 1.86274 45.9922 1.2 45.9922C0.537259 45.9922 0 46.5124 0 47.1541C0 47.7958 0.537259 48.316 1.2 48.316Z" fill="#FF772D" fill-opacity="0.45"/>
<path d="M18.8992 48.316C19.562 48.316 20.0992 47.7958 20.0992 47.1541C20.0992 46.5124 19.562 45.9922 18.8992 45.9922C18.2365 45.9922 17.6992 46.5124 17.6992 47.1541C17.6992 47.7958 18.2365 48.316 18.8992 48.316Z" fill="#FF772D" fill-opacity="0.45"/>
<path d="M36.5008 48.316C37.1635 48.316 37.7008 47.7958 37.7008 47.1541C37.7008 46.5124 37.1635 45.9922 36.5008 45.9922C35.838 45.9922 35.3008 46.5124 35.3008 47.1541C35.3008 47.7958 35.838 48.316 36.5008 48.316Z" fill="#FF772D" fill-opacity="0.45"/>
<path d="M55.4 47.1541C55.4 47.8319 54.9 48.316 54.2 48.316C53.5 48.316 53 47.8319 53 47.1541C53 46.4763 53.5 45.9922 54.2 45.9922C54.9 45.9922 55.4 46.4763 55.4 47.1541Z" fill="#FF772D" fill-opacity="0.45"/>
<path d="M71.8992 48.316C72.562 48.316 73.0992 47.7958 73.0992 47.1541C73.0992 46.5124 72.562 45.9922 71.8992 45.9922C71.2365 45.9922 70.6992 46.5124 70.6992 47.1541C70.6992 47.7958 71.2365 48.316 71.8992 48.316Z" fill="#FF772D" fill-opacity="0.45"/>
<path d="M89.5008 48.316C90.1635 48.316 90.7008 47.7958 90.7008 47.1541C90.7008 46.5124 90.1635 45.9922 89.5008 45.9922C88.838 45.9922 88.3008 46.5124 88.3008 47.1541C88.3008 47.7958 88.838 48.316 89.5008 48.316Z" fill="#FF772D" fill-opacity="0.45"/>
<path d="M107.2 48.316C107.863 48.316 108.4 47.7958 108.4 47.1541C108.4 46.5124 107.863 45.9922 107.2 45.9922C106.537 45.9922 106 46.5124 106 47.1541C106 47.7958 106.537 48.316 107.2 48.316Z" fill="#FF772D" fill-opacity="0.45"/>
<path d="M124.8 48.316C125.462 48.316 126 47.7958 126 47.1541C126 46.5124 125.462 45.9922 124.8 45.9922C124.137 45.9922 123.6 46.5124 123.6 47.1541C123.6 47.7958 124.137 48.316 124.8 48.316Z" fill="#FF772D" fill-opacity="0.45"/>
<path d="M142.501 48.316C143.164 48.316 143.701 47.7958 143.701 47.1541C143.701 46.5124 143.164 45.9922 142.501 45.9922C141.838 45.9922 141.301 46.5124 141.301 47.1541C141.301 47.7958 141.838 48.316 142.501 48.316Z" fill="#FF772D" fill-opacity="0.45"/>
<path d="M1.2 61.8716C1.86274 61.8716 2.4 61.3514 2.4 60.7098C2.4 60.0681 1.86274 59.5479 1.2 59.5479C0.537259 59.5479 0 60.0681 0 60.7098C0 61.3514 0.537259 61.8716 1.2 61.8716Z" fill="#FF772D" fill-opacity="0.45"/>
<path d="M18.8992 61.8716C19.562 61.8716 20.0992 61.3514 20.0992 60.7098C20.0992 60.0681 19.562 59.5479 18.8992 59.5479C18.2365 59.5479 17.6992 60.0681 17.6992 60.7098C17.6992 61.3514 18.2365 61.8716 18.8992 61.8716Z" fill="#FF772D" fill-opacity="0.45"/>
<path d="M36.5008 61.8716C37.1635 61.8716 37.7008 61.3514 37.7008 60.7098C37.7008 60.0681 37.1635 59.5479 36.5008 59.5479C35.838 59.5479 35.3008 60.0681 35.3008 60.7098C35.3008 61.3514 35.838 61.8716 36.5008 61.8716Z" fill="#FF772D" fill-opacity="0.45"/>
<path d="M55.4 60.7098C55.4 61.3875 54.9 61.8716 54.2 61.8716C53.5 61.8716 53 61.3875 53 60.7098C53 60.032 53.5 59.5479 54.2 59.5479C54.9 59.5479 55.4 60.032 55.4 60.7098Z" fill="#FF772D" fill-opacity="0.45"/>
<path d="M71.8992 61.8716C72.562 61.8716 73.0992 61.3514 73.0992 60.7098C73.0992 60.0681 72.562 59.5479 71.8992 59.5479C71.2365 59.5479 70.6992 60.0681 70.6992 60.7098C70.6992 61.3514 71.2365 61.8716 71.8992 61.8716Z" fill="#FF772D" fill-opacity="0.45"/>
<path d="M89.5008 61.8716C90.1635 61.8716 90.7008 61.3514 90.7008 60.7098C90.7008 60.0681 90.1635 59.5479 89.5008 59.5479C88.838 59.5479 88.3008 60.0681 88.3008 60.7098C88.3008 61.3514 88.838 61.8716 89.5008 61.8716Z" fill="#FF772D" fill-opacity="0.45"/>
<path d="M107.2 61.8716C107.863 61.8716 108.4 61.3514 108.4 60.7098C108.4 60.0681 107.863 59.5479 107.2 59.5479C106.537 59.5479 106 60.0681 106 60.7098C106 61.3514 106.537 61.8716 107.2 61.8716Z" fill="#FF772D" fill-opacity="0.45"/>
<path d="M124.8 61.8716C125.462 61.8716 126 61.3514 126 60.7098C126 60.0681 125.462 59.5479 124.8 59.5479C124.137 59.5479 123.6 60.0681 123.6 60.7098C123.6 61.3514 124.137 61.8716 124.8 61.8716Z" fill="#FF772D" fill-opacity="0.45"/>
<path d="M142.501 61.8716C143.164 61.8716 143.701 61.3514 143.701 60.7098C143.701 60.0681 143.164 59.5479 142.501 59.5479C141.838 59.5479 141.301 60.0681 141.301 60.7098C141.301 61.3514 141.838 61.8716 142.501 61.8716Z" fill="#FF772D" fill-opacity="0.45"/>
</svg>
