<svg width="33" height="32" viewBox="0 0 33 32" fill="none" xmlns="http://www.w3.org/2000/svg">
<g clip-path="url(#clip0_639_18569)">
<path d="M32.25 16C32.25 7.16347 25.0865 0 16.25 0C7.41347 0 0.25 7.16347 0.25 16C0.25 23.9859 6.10094 30.6053 13.75 31.8056V20.625H9.68747V16H13.75V12.475C13.75 8.465 16.1387 6.25 19.7935 6.25C21.5435 6.25 23.375 6.5625 23.375 6.5625V10.5H21.3575C19.37 10.5 18.75 11.7335 18.75 13V16H23.1875L22.4781 20.625H18.75V31.8056C26.3991 30.6053 32.25 23.9859 32.25 16Z" fill="#1877F2"/>
<path d="M22.4782 20.625L23.1875 16H18.75V13C18.75 11.7347 19.37 10.5 21.3576 10.5H23.375V6.5625C23.375 6.5625 21.5441 6.25 19.7935 6.25C16.1388 6.25 13.75 8.465 13.75 12.475V16H9.6875V20.625H13.75V31.8056C15.4066 32.0648 17.0934 32.0648 18.75 31.8056V20.625H22.4782Z" fill="white"/>
</g>
<defs>
<clipPath id="clip0_639_18569">
<rect width="32" height="32" fill="white" transform="translate(0.25)"/>
</clipPath>
</defs>
</svg>
