<svg viewBox="0 0 72 20" fill="none" xmlns="http://www.w3.org/2000/svg">
<path d="M2.53862 11.7693L1.70462 10.9353C-0.568208 8.66246 -0.568208 4.97746 1.70462 2.70462C3.97746 0.431792 7.66246 0.431792 9.93529 2.70462L10.7693 3.53862L8.08654 8.25154L2.53862 11.7693Z" fill="#FF772D"/>
<path d="M19.833 2.70462C17.5602 0.431792 13.8752 0.431792 11.6024 2.70462L10.7683 3.53862L10.3477 7.36905L10.7683 9.22621L14.4461 5.5484C14.9044 5.09016 15.4395 5.02171 15.7177 5.02171C15.9959 5.02171 16.531 5.09016 16.9892 5.5484C17.4475 6.00669 17.5159 6.54179 17.5159 6.81994C17.5159 7.09809 17.4475 7.63319 16.9892 8.09148L10.7683 14.3124L10.3477 16.0793L10.7683 20L19.833 10.9353C22.1059 8.66246 22.1059 4.97746 19.833 2.70462Z" fill="#282866"/>
<path d="M8.22666 11.7692L10.7697 9.22617V3.53857L2.53906 11.7692L10.7697 20V14.3123L8.22666 11.7692Z" fill="#4A4080"/>
<path d="M30.3175 17H25.6768V3.90909H30.3558C31.6726 3.90909 32.8061 4.17116 33.7564 4.69531C34.7067 5.2152 35.4375 5.96307 35.9489 6.93892C36.4645 7.91477 36.7223 9.08239 36.7223 10.4418C36.7223 11.8054 36.4645 12.9773 35.9489 13.9574C35.4375 14.9375 34.7024 15.6896 33.7436 16.2138C32.7891 16.7379 31.647 17 30.3175 17ZM28.4446 14.6286H30.2024C31.0206 14.6286 31.7088 14.4837 32.267 14.1939C32.8295 13.8999 33.2514 13.446 33.5327 12.8324C33.8182 12.2145 33.9609 11.4176 33.9609 10.4418C33.9609 9.47443 33.8182 8.68395 33.5327 8.07031C33.2514 7.45668 32.8317 7.00497 32.2734 6.7152C31.7152 6.42543 31.027 6.28054 30.2088 6.28054H28.4446V14.6286ZM38.7725 3.90909H42.1859L45.791 12.7045H45.9444L49.5495 3.90909H52.9629V17H50.2782V8.4794H50.1696L46.7818 16.9361H44.9537L41.5659 8.44744H41.4572V17H38.7725V3.90909ZM55.2433 3.90909H58.6566L62.2617 12.7045H62.4151L66.0202 3.90909H69.4336V17H66.7489V8.4794H66.6403L63.2525 16.9361H61.4244L58.0366 8.44744H57.9279V17H55.2433V3.90909Z" fill="#282866"/>
</svg>
