<svg width="32" height="32" viewBox="0 0 32 32" fill="none" xmlns="http://www.w3.org/2000/svg">
<g clip-path="url(#clip0_639_18576)">
<path d="M16.0055 0.244141C9.42579 0.244141 7.50146 0.250929 7.12739 0.281958C5.77715 0.394197 4.93693 0.606797 4.02156 1.06254C3.31613 1.41283 2.75978 1.81888 2.21071 2.38807C1.21074 3.42611 0.604695 4.70316 0.385308 6.22117C0.278644 6.95811 0.247615 7.10844 0.241312 10.8726C0.238888 12.1274 0.241312 13.7788 0.241312 15.9937C0.241312 22.568 0.248584 24.4904 0.280098 24.8638C0.389186 26.1776 0.59524 27.0043 1.03159 27.9085C1.86551 29.6394 3.45819 30.9387 5.33449 31.4236C5.98417 31.5908 6.70173 31.683 7.62292 31.7266C8.01319 31.7436 11.9913 31.7556 15.9717 31.7556C19.9523 31.7556 23.9327 31.7508 24.3133 31.7314C25.3799 31.6812 25.9993 31.5981 26.6841 31.4211C28.5726 30.9339 30.1362 29.6539 30.9871 27.8988C31.4149 27.0164 31.6319 26.1582 31.7301 24.913C31.7514 24.6414 31.7603 20.3126 31.7603 15.9896C31.7603 11.6658 31.7507 7.34504 31.7293 7.07351C31.6299 5.80809 31.413 4.95721 30.9713 4.05785C30.6089 3.32163 30.2065 2.77182 29.6223 2.20966C28.5796 1.21381 27.3045 0.607766 25.785 0.388621C25.0488 0.2822 24.9021 0.250686 21.135 0.244141H16.0055Z" fill="#15191E"/>
<path d="M16.7428 11.7319H5.57227V23.7843H8.68143V19.8632H14.639L17.3572 23.7843H20.8386L17.8412 19.8452C18.7721 19.7007 19.4423 19.3573 19.8519 18.8152C20.2614 18.2732 20.4663 17.4058 20.4663 16.2493V15.3459C20.4663 14.6592 20.3919 14.1171 20.2614 13.7015C20.1312 13.2859 19.9078 12.9245 19.5913 12.5993C19.2562 12.2921 18.8838 12.0753 18.437 11.9307C17.9902 11.8042 17.4316 11.7319 16.7428 11.7319ZM16.2402 17.207H8.68143V14.3881H16.2402C16.6683 14.3881 16.9662 14.4605 17.1152 14.5869C17.264 14.7134 17.3572 14.9483 17.3572 15.2917V16.3036C17.3572 16.665 17.264 16.8999 17.1152 17.0263C16.9662 17.1528 16.6683 17.207 16.2402 17.207Z" fill="white"/>
<path d="M24.6013 11.1313C25.7631 11.1313 26.7056 10.1866 26.7056 9.0212C26.7056 7.85587 25.7631 6.91113 24.6013 6.91113C23.4386 6.91113 22.4961 7.85587 22.4961 9.0212C22.4961 10.1866 23.4386 11.1313 24.6013 11.1313Z" fill="#F41240"/>
</g>
<defs>
<clipPath id="clip0_639_18576">
<rect width="32" height="32" fill="white"/>
</clipPath>
</defs>
</svg>
