<svg width="33" height="32" viewBox="0 0 33 32" fill="none" xmlns="http://www.w3.org/2000/svg">
<g clip-path="url(#clip0_639_18555)">
<path d="M16.25 32C25.0865 32 32.25 24.8365 32.25 16C32.25 7.16347 25.0865 0 16.25 0C7.41347 0 0.25 7.16347 0.25 16C0.25 24.8365 7.41347 32 16.25 32Z" fill="url(#paint0_linear_639_18555)"/>
<path fill-rule="evenodd" clip-rule="evenodd" d="M7.49334 15.8309C12.1577 13.7987 15.2679 12.459 16.8242 11.8117C21.2675 9.96355 22.1908 9.64255 22.7926 9.63195C22.925 9.62962 23.2209 9.66242 23.4126 9.81795C23.5745 9.94928 23.619 10.1267 23.6403 10.2512C23.6617 10.3757 23.6882 10.6595 23.6671 10.8811C23.4263 13.4111 22.3844 19.5507 21.8543 22.3843C21.6301 23.5833 21.1885 23.9853 20.7609 24.0247C19.8317 24.1101 19.1262 23.4106 18.2263 22.8207C16.8181 21.8976 16.0225 21.323 14.6556 20.4222C13.0759 19.3812 14.1 18.8091 15.0003 17.874C15.2359 17.6293 19.3297 13.9056 19.4089 13.5678C19.4189 13.5255 19.4281 13.3681 19.3345 13.2849C19.2409 13.2018 19.1029 13.2302 19.0032 13.2528C18.862 13.2849 16.6123 14.7718 12.2543 17.7136C11.6158 18.1521 11.0374 18.3657 10.5192 18.3545C9.94794 18.3422 8.84901 18.0315 8.03208 17.7659C7.03008 17.4403 6.23369 17.2681 6.30304 16.7149C6.33916 16.4267 6.73592 16.1321 7.49334 15.8309Z" fill="white"/>
</g>
<defs>
<linearGradient id="paint0_linear_639_18555" x1="16.25" y1="0" x2="16.25" y2="31.7627" gradientUnits="userSpaceOnUse">
<stop stop-color="#2AABEE"/>
<stop offset="1" stop-color="#229ED9"/>
</linearGradient>
<clipPath id="clip0_639_18555">
<rect width="32" height="32" fill="white" transform="translate(0.25)"/>
</clipPath>
</defs>
</svg>
