<svg width="33" height="32" viewBox="0 0 33 32" fill="none" xmlns="http://www.w3.org/2000/svg">
<g clip-path="url(#clip0_639_18558)">
<path d="M30.0833 0H3.41667C1.94391 0 0.75 1.19391 0.75 2.66667V29.3333C0.75 30.8061 1.94391 32 3.41667 32H30.0833C31.5561 32 32.75 30.8061 32.75 29.3333V2.66667C32.75 1.19391 31.5561 0 30.0833 0Z" fill="black"/>
<path d="M14.3559 14.1096V13.2818C14.0723 13.2439 13.7839 13.2202 13.4862 13.2202C9.93667 13.2156 7.04883 16.1058 7.04883 19.663C7.04883 21.8438 8.13587 23.7738 9.79961 24.9422C8.72667 23.7927 8.06974 22.2458 8.06974 20.5524C8.06974 17.0471 10.8772 14.19 14.3559 14.1096Z" fill="#25F4EE"/>
<path d="M14.513 23.4947C16.0963 23.4947 17.3913 22.2317 17.4481 20.6612L17.4529 6.62613H20.0145C19.9625 6.33758 19.9342 6.03956 19.9342 5.73682H16.4366L16.4319 19.7719C16.3752 21.3424 15.0801 22.6054 13.4968 22.6054C13.0053 22.6054 12.5421 22.4824 12.1309 22.2648C12.6602 23.0074 13.5299 23.4947 14.513 23.4947Z" fill="#25F4EE"/>
<path d="M24.8019 11.3898V10.6093C23.8236 10.6093 22.9161 10.3207 22.1504 9.81934C22.831 10.5999 23.7526 11.1675 24.8019 11.3898Z" fill="#25F4EE"/>
<path d="M22.1492 9.81947C21.4024 8.96327 20.9534 7.84694 20.9534 6.62646H20.0176C20.2586 7.96047 21.0527 9.1052 22.1492 9.81947Z" fill="#FE2C55"/>
<path d="M13.4906 16.7162C11.8694 16.7162 10.5508 18.036 10.5508 19.6585C10.5508 20.7891 11.1936 21.773 12.1294 22.265C11.7796 21.7824 11.5717 21.1912 11.5717 20.5478C11.5717 18.9253 12.8904 17.6055 14.5116 17.6055C14.814 17.6055 15.107 17.6575 15.3812 17.7427V14.1666C15.0976 14.1287 14.8093 14.105 14.5116 14.105C14.4596 14.105 14.4123 14.1098 14.3603 14.1098V16.8534C14.0814 16.7682 13.7931 16.7162 13.4906 16.7162Z" fill="#FE2C55"/>
<path d="M24.8005 11.3896V14.1096C22.9855 14.1096 21.303 13.5278 19.9322 12.5438V19.6631C19.9322 23.2156 17.0444 26.1106 13.4902 26.1106C12.1195 26.1106 10.8434 25.6754 9.79883 24.9422C10.9757 26.2052 12.6536 27 14.5111 27C18.0606 27 20.9532 24.1096 20.9532 20.5524V13.4332C22.3238 14.4171 24.0064 14.9989 25.8214 14.9989V11.4984C25.4668 11.4984 25.1266 11.4606 24.8005 11.3896Z" fill="#FE2C55"/>
<path d="M19.9336 19.6634V12.5441C21.3042 13.5281 22.9868 14.1099 24.8018 14.1099V11.3899C23.7525 11.1677 22.8308 10.6 22.1503 9.81947C21.0537 9.1052 20.2644 7.96047 20.0139 6.62646H17.4522L17.4475 20.6615C17.3908 22.232 16.0957 23.495 14.5124 23.495C13.5293 23.495 12.6644 23.0078 12.1256 22.2699C11.1897 21.7731 10.5469 20.794 10.5469 19.6634C10.5469 18.0409 11.8656 16.7211 13.4868 16.7211C13.7892 16.7211 14.0823 16.7731 14.3564 16.8583V14.1147C10.8778 14.1903 8.07031 17.0475 8.07031 20.5527C8.07031 22.2462 8.72725 23.7883 9.80018 24.9425C10.8447 25.6757 12.1208 26.1109 13.4915 26.1109C17.041 26.1109 19.9336 23.2159 19.9336 19.6634Z" fill="white"/>
</g>
<defs>
<clipPath id="clip0_639_18558">
<rect width="32" height="32" fill="white" transform="translate(0.75)"/>
</clipPath>
</defs>
</svg>
