<svg width="33" height="32" viewBox="0 0 33 32" fill="none" xmlns="http://www.w3.org/2000/svg">
<g clip-path="url(#clip0_639_18562)">
<path d="M28.2317 9.24851C28.2507 9.5208 28.2507 9.79309 28.2507 10.0679C28.2507 18.4419 21.8173 28.0996 10.0534 28.0996V28.0946C6.57832 28.0996 3.17545 27.1133 0.25 25.2535C0.755307 25.3137 1.26314 25.3439 1.77225 25.3451C4.6521 25.3476 7.44967 24.3902 9.71527 22.627C6.97856 22.5755 4.57865 20.8074 3.74027 18.226C4.69896 18.4092 5.68677 18.3716 6.62775 18.1169C3.64403 17.5195 1.49743 14.9219 1.49743 11.9051C1.49743 11.8775 1.49743 11.8512 1.49743 11.8248C2.38647 12.3155 3.38188 12.5878 4.40008 12.6179C1.58988 10.7569 0.723644 7.05241 2.42066 4.15609C5.66778 8.11531 10.4587 10.5222 15.6016 10.7769C15.0862 8.57586 15.7904 6.26935 17.4519 4.72206C20.0278 2.32268 24.0791 2.44566 26.5005 4.99688C27.9329 4.71703 29.3057 4.19625 30.562 3.45837C30.0845 4.92535 29.0853 6.17147 27.7505 6.96331C29.0182 6.81523 30.2567 6.47892 31.4231 5.96566C30.5645 7.24064 29.483 8.35123 28.2317 9.24851Z" fill="#1D9BF0"/>
</g>
<defs>
<clipPath id="clip0_639_18562">
<rect width="32" height="32" fill="white" transform="translate(0.25)"/>
</clipPath>
</defs>
</svg>
