<svg width="33" height="32" viewBox="0 0 33 32" fill="none" xmlns="http://www.w3.org/2000/svg">
<g clip-path="url(#clip0_639_18551)">
<path d="M0.75 15.36C0.75 8.1192 0.75 4.49884 2.99942 2.24942C5.24884 0 8.8692 0 16.11 0H17.39C24.6308 0 28.2511 0 30.5006 2.24942C32.75 4.49884 32.75 8.1192 32.75 15.36V16.64C32.75 23.8808 32.75 27.5011 30.5006 29.7506C28.2511 32 24.6308 32 17.39 32H16.11C8.8692 32 5.24884 32 2.99942 29.7506C0.75 27.5011 0.75 23.8808 0.75 16.64V15.36Z" fill="#0077FF"/>
<path d="M17.777 23.0534C10.4837 23.0534 6.32372 18.0534 6.15039 9.7334H9.80372C9.92372 15.8401 12.617 18.4267 14.7503 18.9601V9.7334H18.1905V15.0001C20.2971 14.7734 22.5102 12.3734 23.2569 9.7334H26.6969C26.1236 12.9867 23.7236 15.3867 22.0169 16.3734C23.7236 17.1734 26.4571 19.2667 27.4971 23.0534H23.7103C22.8969 20.5201 20.8705 18.5601 18.1905 18.2934V23.0534H17.777Z" fill="white"/>
</g>
<defs>
<clipPath id="clip0_639_18551">
<rect width="32" height="32" fill="white" transform="translate(0.75)"/>
</clipPath>
</defs>
</svg>
