<svg width="33" height="32" viewBox="0 0 33 32" fill="none" xmlns="http://www.w3.org/2000/svg">
<g clip-path="url(#clip0_639_18565)">
<path d="M32.0809 8.52668C31.9 7.84461 31.5435 7.2221 31.0469 6.72147C30.5505 6.22083 29.9314 5.85963 29.2518 5.67401C26.75 5 16.75 5 16.75 5C16.75 5 6.75 5 4.24818 5.67401C3.56857 5.85963 2.94955 6.22083 2.45305 6.72147C1.95655 7.2221 1.60001 7.84461 1.41909 8.52668C0.75 11.0442 0.75 16.2941 0.75 16.2941C0.75 16.2941 0.75 21.5441 1.41909 24.0615C1.60001 24.7436 1.95655 25.3662 2.45305 25.8667C2.94955 26.3674 3.56857 26.7286 4.24818 26.9142C6.75 27.5882 16.75 27.5882 16.75 27.5882C16.75 27.5882 26.75 27.5882 29.2518 26.9142C29.9314 26.7286 30.5505 26.3674 31.0469 25.8667C31.5435 25.3662 31.9 24.7436 32.0809 24.0615C32.75 21.5441 32.75 16.2941 32.75 16.2941C32.75 16.2941 32.75 11.0442 32.0809 8.52668Z" fill="#FF0000"/>
<path d="M12.75 20.5344L21.1137 15.7672L12.75 11V20.5344Z" fill="white"/>
</g>
<defs>
<clipPath id="clip0_639_18565">
<rect width="32" height="32" fill="white" transform="translate(0.75)"/>
</clipPath>
</defs>
</svg>
